<svg style="vertical-align: -2.628ex;" xmlns="http://www.w3.org/2000/svg" width="25.357ex" height="6.588ex" role="img" focusable="false" viewBox="0 -1750.2 11207.7 2911.8" xmlns:xlink="http://www.w3.org/1999/xlink"><defs><path id="MJX-7-TEX-I-1D443" d="M287 628Q287 635 230 637Q206 637 199 638T192 648Q192 649 194 659Q200 679 203 681T397 683Q587 682 600 680Q664 669 707 631T751 530Q751 453 685 389Q616 321 507 303Q500 302 402 301H307L277 182Q247 66 247 59Q247 55 248 54T255 50T272 48T305 46H336Q342 37 342 35Q342 19 335 5Q330 0 319 0Q316 0 282 1T182 2Q120 2 87 2T51 1Q33 1 33 11Q33 13 36 25Q40 41 44 43T67 46Q94 46 127 49Q141 52 146 61Q149 65 218 339T287 628ZM645 554Q645 567 643 575T634 597T609 619T560 635Q553 636 480 637Q463 637 445 637T416 636T404 636Q391 635 386 627Q384 621 367 550T332 412T314 344Q314 342 395 342H407H430Q542 342 590 392Q617 419 631 471T645 554Z"></path><path id="MJX-7-TEX-I-1D461" d="M26 385Q19 392 19 395Q19 399 22 411T27 425Q29 430 36 430T87 431H140L159 511Q162 522 166 540T173 566T179 586T187 603T197 615T211 624T229 626Q247 625 254 615T261 596Q261 589 252 549T232 470L222 433Q222 431 272 431H323Q330 424 330 420Q330 398 317 385H210L174 240Q135 80 135 68Q135 26 162 26Q197 26 230 60T283 144Q285 150 288 151T303 153H307Q322 153 322 145Q322 142 319 133Q314 117 301 95T267 48T216 6T155 -11Q125 -11 98 4T59 56Q57 64 57 83V101L92 241Q127 382 128 383Q128 385 77 385H26Z"></path><path id="MJX-7-TEX-N-2C" d="M78 35T78 60T94 103T137 121Q165 121 187 96T210 8Q210 -27 201 -60T180 -117T154 -158T130 -185T117 -194Q113 -194 104 -185T95 -172Q95 -168 106 -156T131 -126T157 -76T173 -3V9L172 8Q170 7 167 6T161 3T152 1T140 0Q113 0 96 17Z"></path><path id="MJX-7-TEX-I-1D456" d="M184 600Q184 624 203 642T247 661Q265 661 277 649T290 619Q290 596 270 577T226 557Q211 557 198 567T184 600ZM21 287Q21 295 30 318T54 369T98 420T158 442Q197 442 223 419T250 357Q250 340 236 301T196 196T154 83Q149 61 149 51Q149 26 166 26Q175 26 185 29T208 43T235 78T260 137Q263 149 265 151T282 153Q302 153 302 143Q302 135 293 112T268 61T223 11T161 -11Q129 -11 102 10T74 74Q74 91 79 106T122 220Q160 321 166 341T173 380Q173 404 156 404H154Q124 404 99 371T61 287Q60 286 59 284T58 281T56 279T53 278T49 278T41 278H27Q21 284 21 287Z"></path><path id="MJX-7-TEX-I-1D457" d="M297 596Q297 627 318 644T361 661Q378 661 389 651T403 623Q403 595 384 576T340 557Q322 557 310 567T297 596ZM288 376Q288 405 262 405Q240 405 220 393T185 362T161 325T144 293L137 279Q135 278 121 278H107Q101 284 101 286T105 299Q126 348 164 391T252 441Q253 441 260 441T272 442Q296 441 316 432Q341 418 354 401T367 348V332L318 133Q267 -67 264 -75Q246 -125 194 -164T75 -204Q25 -204 7 -183T-12 -137Q-12 -110 7 -91T53 -71Q70 -71 82 -81T95 -112Q95 -148 63 -167Q69 -168 77 -168Q111 -168 139 -140T182 -74L193 -32Q204 11 219 72T251 197T278 308T289 365Q289 372 288 376Z"></path><path id="MJX-7-TEX-N-3D" d="M56 347Q56 360 70 367H707Q722 359 722 347Q722 336 708 328L390 327H72Q56 332 56 347ZM56 153Q56 168 72 173H708Q722 163 722 153Q722 140 707 133H70Q56 140 56 153Z"></path><path id="MJX-7-TEX-I-1D436" d="M50 252Q50 367 117 473T286 641T490 704Q580 704 633 653Q642 643 648 636T656 626L657 623Q660 623 684 649Q691 655 699 663T715 679T725 690L740 705H746Q760 705 760 698Q760 694 728 561Q692 422 692 421Q690 416 687 415T669 413H653Q647 419 647 422Q647 423 648 429T650 449T651 481Q651 552 619 605T510 659Q484 659 454 652T382 628T299 572T226 479Q194 422 175 346T156 222Q156 108 232 58Q280 24 350 24Q441 24 512 92T606 240Q610 253 612 255T628 257Q648 257 648 248Q648 243 647 239Q618 132 523 55T319 -22Q206 -22 128 53T50 252Z"></path><path id="MJX-7-TEX-N-2B" d="M56 237T56 250T70 270H369V420L370 570Q380 583 389 583Q402 583 409 568V270H707Q722 262 722 250T707 230H409V-68Q401 -82 391 -82H389H387Q375 -82 369 -68V230H70Q56 237 56 250Z"></path><path id="MJX-7-TEX-N-33" d="M127 463Q100 463 85 480T69 524Q69 579 117 622T233 665Q268 665 277 664Q351 652 390 611T430 522Q430 470 396 421T302 350L299 348Q299 347 308 345T337 336T375 315Q457 262 457 175Q457 96 395 37T238 -22Q158 -22 100 21T42 130Q42 158 60 175T105 193Q133 193 151 175T169 130Q169 119 166 110T159 94T148 82T136 74T126 70T118 67L114 66Q165 21 238 21Q293 21 321 74Q338 107 338 175V195Q338 290 274 322Q259 328 213 329L171 330L168 332Q166 335 166 348Q166 366 174 366Q202 366 232 371Q266 376 294 413T322 525V533Q322 590 287 612Q265 626 240 626Q208 626 181 615T143 592T132 580H135Q138 579 143 578T153 573T165 566T175 555T183 540T186 520Q186 498 172 481T127 463Z"></path><path id="MJX-7-TEX-N-61" d="M137 305T115 305T78 320T63 359Q63 394 97 421T218 448Q291 448 336 416T396 340Q401 326 401 309T402 194V124Q402 76 407 58T428 40Q443 40 448 56T453 109V145H493V106Q492 66 490 59Q481 29 455 12T400 -6T353 12T329 54V58L327 55Q325 52 322 49T314 40T302 29T287 17T269 6T247 -2T221 -8T190 -11Q130 -11 82 20T34 107Q34 128 41 147T68 188T116 225T194 253T304 268H318V290Q318 324 312 340Q290 411 215 411Q197 411 181 410T156 406T148 403Q170 388 170 359Q170 334 154 320ZM126 106Q126 75 150 51T209 26Q247 26 276 49T315 109Q317 116 318 175Q318 233 317 233Q309 233 296 232T251 223T193 203T147 166T126 106Z"></path><path id="MJX-7-TEX-N-6C" d="M42 46H56Q95 46 103 60V68Q103 77 103 91T103 124T104 167T104 217T104 272T104 329Q104 366 104 407T104 482T104 542T103 586T103 603Q100 622 89 628T44 637H26V660Q26 683 28 683L38 684Q48 685 67 686T104 688Q121 689 141 690T171 693T182 694H185V379Q185 62 186 60Q190 52 198 49Q219 46 247 46H263V0H255L232 1Q209 2 183 2T145 3T107 3T57 1L34 0H26V46H42Z"></path><path id="MJX-7-TEX-SO-2211" d="M61 748Q64 750 489 750H913L954 640Q965 609 976 579T993 533T999 516H979L959 517Q936 579 886 621T777 682Q724 700 655 705T436 710H319Q183 710 183 709Q186 706 348 484T511 259Q517 250 513 244L490 216Q466 188 420 134T330 27L149 -187Q149 -188 362 -188Q388 -188 436 -188T506 -189Q679 -189 778 -162T936 -43Q946 -27 959 6H999L913 -249L489 -250Q65 -250 62 -248Q56 -246 56 -239Q56 -234 118 -161Q186 -81 245 -11L428 206Q428 207 242 462L57 717L56 728Q56 744 61 748Z"></path><path id="MJX-7-TEX-I-210E" d="M137 683Q138 683 209 688T282 694Q294 694 294 685Q294 674 258 534Q220 386 220 383Q220 381 227 388Q288 442 357 442Q411 442 444 415T478 336Q478 285 440 178T402 50Q403 36 407 31T422 26Q450 26 474 56T513 138Q516 149 519 151T535 153Q555 153 555 145Q555 144 551 130Q535 71 500 33Q466 -10 419 -10H414Q367 -10 346 17T325 74Q325 90 361 192T398 345Q398 404 354 404H349Q266 404 205 306L198 293L164 158Q132 28 127 16Q114 -11 83 -11Q69 -11 59 -2T48 16Q48 30 121 320L195 616Q195 629 188 632T149 637H128Q122 643 122 645T124 664Q129 683 137 683Z"></path><path id="MJX-7-TEX-SO-28" d="M152 251Q152 646 388 850H416Q422 844 422 841Q422 837 403 816T357 753T302 649T255 482T236 250Q236 124 255 19T301 -147T356 -251T403 -315T422 -340Q422 -343 416 -349H388Q359 -325 332 -296T271 -213T212 -97T170 56T152 251Z"></path><path id="MJX-7-TEX-SO-29" d="M305 251Q305 -145 69 -349H56Q43 -349 39 -347T35 -338Q37 -333 60 -307T108 -239T160 -136T204 27T221 250T204 473T160 636T108 740T60 807T35 839Q35 850 50 850H56H69Q197 743 256 566Q305 425 305 251Z"></path></defs><g stroke="#0E3F8C" fill="#0E3F8C" stroke-width="0" transform="scale(1,-1)"><g data-mml-node="math"><g data-mml-node="msub"><g data-mml-node="mi"><use data-c="1D443" xlink:href="#MJX-7-TEX-I-1D443"></use></g><g data-mml-node="TeXAtom" transform="translate(675,-150) scale(0.707)" data-mjx-texclass="ORD"><g data-mml-node="mi"><use data-c="1D461" xlink:href="#MJX-7-TEX-I-1D461"></use></g><g data-mml-node="mo" transform="translate(361,0)"><use data-c="2C" xlink:href="#MJX-7-TEX-N-2C"></use></g><g data-mml-node="mi" transform="translate(639,0)"><use data-c="1D456" xlink:href="#MJX-7-TEX-I-1D456"></use></g><g data-mml-node="mi" transform="translate(984,0)"><use data-c="1D457" xlink:href="#MJX-7-TEX-I-1D457"></use></g></g></g><g data-mml-node="mo" transform="translate(1989.9,0)"><use data-c="3D" xlink:href="#MJX-7-TEX-N-3D"></use></g><g data-mml-node="mfrac" transform="translate(3045.7,0)"><g data-mml-node="mrow" transform="translate(1509.1,896.4)"><g data-mml-node="msub"><g data-mml-node="mi"><use data-c="1D436" xlink:href="#MJX-7-TEX-I-1D436"></use></g><g data-mml-node="TeXAtom" transform="translate(748,-150) scale(0.707)" data-mjx-texclass="ORD"><g data-mml-node="mi"><use data-c="1D461" xlink:href="#MJX-7-TEX-I-1D461"></use></g><g data-mml-node="mo" transform="translate(361,0)"><use data-c="2C" xlink:href="#MJX-7-TEX-N-2C"></use></g><g data-mml-node="mi" transform="translate(639,0)"><use data-c="1D456" xlink:href="#MJX-7-TEX-I-1D456"></use></g><g data-mml-node="mi" transform="translate(984,0)"><use data-c="1D457" xlink:href="#MJX-7-TEX-I-1D457"></use></g></g></g><g data-mml-node="mo" transform="translate(2007.3,0)"><use data-c="2B" xlink:href="#MJX-7-TEX-N-2B"></use></g><g data-mml-node="mn" transform="translate(3007.6,0)"><use data-c="33" xlink:href="#MJX-7-TEX-N-33"></use></g><g data-mml-node="msubsup" transform="translate(3507.6,0)"><g data-mml-node="mi"><use data-c="1D443" xlink:href="#MJX-7-TEX-I-1D443"></use></g><g data-mml-node="TeXAtom" transform="translate(839.5,363) scale(0.707)" data-mjx-texclass="ORD"><g data-mml-node="TeXAtom" data-mjx-texclass="ORD"><g data-mml-node="mi"><use data-c="61" xlink:href="#MJX-7-TEX-N-61"></use><use data-c="6C" xlink:href="#MJX-7-TEX-N-6C" transform="translate(500,0)"></use><use data-c="6C" xlink:href="#MJX-7-TEX-N-6C" transform="translate(778,0)"></use></g></g></g><g data-mml-node="TeXAtom" transform="translate(675,-292.2) scale(0.707)" data-mjx-texclass="ORD"><g data-mml-node="mi"><use data-c="1D456" xlink:href="#MJX-7-TEX-I-1D456"></use></g><g data-mml-node="mi" transform="translate(345,0)"><use data-c="1D457" xlink:href="#MJX-7-TEX-I-1D457"></use></g></g></g></g><g data-mml-node="mrow" transform="translate(220,-812.1)"><g data-mml-node="munder"><g data-mml-node="mo"><use data-c="2211" xlink:href="#MJX-7-TEX-SO-2211"></use></g><g data-mml-node="mi" transform="translate(1089,-285.4) scale(0.707)"><use data-c="210E" xlink:href="#MJX-7-TEX-I-210E"></use></g></g><g data-mml-node="TeXAtom" data-mjx-texclass="OPEN" transform="translate(1546.3,0)"><g data-mml-node="mo" transform="translate(0 -0.5)"><use data-c="28" xlink:href="#MJX-7-TEX-SO-28"></use></g></g><g data-mml-node="msub" transform="translate(2004.3,0)"><g data-mml-node="mi"><use data-c="1D436" xlink:href="#MJX-7-TEX-I-1D436"></use></g><g data-mml-node="TeXAtom" transform="translate(748,-150) scale(0.707)" data-mjx-texclass="ORD"><g data-mml-node="mi"><use data-c="1D461" xlink:href="#MJX-7-TEX-I-1D461"></use></g><g data-mml-node="mo" transform="translate(361,0)"><use data-c="2C" xlink:href="#MJX-7-TEX-N-2C"></use></g><g data-mml-node="mi" transform="translate(639,0)"><use data-c="1D456" xlink:href="#MJX-7-TEX-I-1D456"></use></g><g data-mml-node="mi" transform="translate(984,0)"><use data-c="210E" xlink:href="#MJX-7-TEX-I-210E"></use></g></g></g><g data-mml-node="mo" transform="translate(4127.6,0)"><use data-c="2B" xlink:href="#MJX-7-TEX-N-2B"></use></g><g data-mml-node="mn" transform="translate(5127.8,0)"><use data-c="33" xlink:href="#MJX-7-TEX-N-33"></use></g><g data-mml-node="msubsup" transform="translate(5627.8,0)"><g data-mml-node="mi"><use data-c="1D443" xlink:href="#MJX-7-TEX-I-1D443"></use></g><g data-mml-node="TeXAtom" transform="translate(839.5,361.4) scale(0.707)" data-mjx-texclass="ORD"><g data-mml-node="TeXAtom" data-mjx-texclass="ORD"><g data-mml-node="mi"><use data-c="61" xlink:href="#MJX-7-TEX-N-61"></use><use data-c="6C" xlink:href="#MJX-7-TEX-N-6C" transform="translate(500,0)"></use><use data-c="6C" xlink:href="#MJX-7-TEX-N-6C" transform="translate(778,0)"></use></g></g></g><g data-mml-node="TeXAtom" transform="translate(675,-317.1) scale(0.707)" data-mjx-texclass="ORD"><g data-mml-node="mi"><use data-c="1D456" xlink:href="#MJX-7-TEX-I-1D456"></use></g><g data-mml-node="mi" transform="translate(345,0)"><use data-c="210E" xlink:href="#MJX-7-TEX-I-210E"></use></g></g></g><g data-mml-node="TeXAtom" data-mjx-texclass="CLOSE" transform="translate(7264,0)"><g data-mml-node="mo" transform="translate(0 -0.5)"><use data-c="29" xlink:href="#MJX-7-TEX-SO-29"></use></g></g></g><rect width="7922" height="60" x="120" y="220"></rect></g></g></g></svg>